<svg width="298" height="298" viewBox="0 0 298 298" fill="none" xmlns="http://www.w3.org/2000/svg">
<path d="M169.819 128.46H169.97L175.272 133.835L211.71 112.106L297.278 1.00171L186.174 86.7204L164.444 123.007L169.819 128.46Z" fill="white" stroke="#495057"/>
<path d="M128.458 170.127L128.162 169.83L123.005 164.752L86.4213 186.33L1 297.434L111.959 211.866L133.683 175.278L128.458 170.127Z" fill="white" stroke="#495057"/>
<path d="M123.005 133.833L128.308 128.459L128.459 128.307L133.683 123.005L111.959 86.7187L1 1L86.4213 112.104L123.005 133.833Z" fill="white" stroke="#495057"/>
<path d="M136.152 161.98V162.131L136.449 162.282C143.168 168.855 154.965 168.855 161.835 162.282L161.986 162.131V161.98C169.006 154.813 169.006 143.464 161.986 136.444C158.475 132.939 153.923 131.069 148.991 131.069C144.288 131.069 139.809 132.934 136.449 136.298L136.152 136.449C129.283 143.465 129.283 154.813 136.152 161.98Z" fill="white" stroke="#495057"/>
<path d="M175.273 164.753L169.97 169.832L169.819 169.977L169.522 170.128L164.444 175.279L186.174 211.867L297.278 297.436L211.71 186.331L175.273 164.753Z" fill="white" stroke="#495057"/>
</svg>
